<svg width="24" height="28" viewBox="0 0 24 28" fill="none" xmlns="http://www.w3.org/2000/svg">
<path d="M12 27.4286C15.3429 27.4286 18.1786 26.4491 20.5071 24.49C22.8357 22.531 24 20.1453 24 17.3329C24 15.0734 23.2071 13.0483 21.6214 11.2575C20.0357 9.46674 17.9571 8.25887 15.3857 7.6339C15.9571 7.51371 16.5143 7.33944 17.0571 7.11109C17.6 6.88273 18.0857 6.58828 18.5143 6.22772C19.4571 5.43449 20.0643 4.49103 20.3357 3.39733C20.6071 2.30364 20.6714 1.19192 20.5286 0.0621653C19.1857 -0.0580209 17.8643 -0.00393715 16.5643 0.224417C15.2643 0.452771 14.1429 0.963562 13.2 1.75679C12.5429 2.30965 12.0643 2.93462 11.7643 3.6317C11.4643 4.32878 11.2714 5.06191 11.1857 5.83111C10.8143 5.08595 10.3643 4.38286 9.83571 3.72184C9.30714 3.06081 8.71428 2.45387 8.05714 1.90101C7.74286 1.63661 7.34286 1.5044 6.85714 1.5044C6.37143 1.5044 5.97143 1.63661 5.65714 1.90101C5.34286 2.16542 5.18571 2.50195 5.18571 2.91058C5.18571 3.31921 5.34286 3.65573 5.65714 3.92014C6.28572 4.44896 6.84286 5.03187 7.32857 5.66885C7.81429 6.30584 8.17143 6.98489 8.4 7.70601C5.88571 8.37905 3.85714 9.59894 2.31429 11.3657C0.771427 13.1324 0 15.1215 0 17.3329C0 20.1453 1.16428 22.531 3.49286 24.49C5.82143 26.4491 8.65714 27.4286 12 27.4286ZM12 24.5441C9.62857 24.5441 7.60714 23.841 5.93571 22.4348C4.26428 21.0287 3.42857 19.328 3.42857 17.3329C3.42857 15.3378 4.26428 13.6372 5.93571 12.231C7.60714 10.8248 9.62857 10.1218 12 10.1218C14.3714 10.1218 16.3929 10.8248 18.0643 12.231C19.7357 13.6372 20.5714 15.3378 20.5714 17.3329C20.5714 19.328 19.7357 21.0287 18.0643 22.4348C16.3929 23.841 14.3714 24.5441 12 24.5441Z" fill="url(#paint0_linear_403_34653)"/>
<defs>
<linearGradient id="paint0_linear_403_34653" x1="12" y1="0" x2="12" y2="27.4286" gradientUnits="userSpaceOnUse">
<stop stop-color="#D3BFFF"/>
<stop offset="1" stop-color="#8856F5"/>
</linearGradient>
</defs>
</svg>
