<svg width="30" height="30" viewBox="0 0 30 30" fill="none" xmlns="http://www.w3.org/2000/svg">
<rect x="2" y="2" width="26" height="26" rx="13" stroke="#996BFF" stroke-width="4"/>
<path d="M17.9795 16.834H20.1768C20.1064 17.6719 19.8721 18.4189 19.4736 19.0752C19.0752 19.7256 18.5156 20.2383 17.7949 20.6133C17.0742 20.9883 16.1982 21.1758 15.167 21.1758C14.376 21.1758 13.6641 21.0352 13.0312 20.7539C12.3984 20.4668 11.8564 20.0625 11.4053 19.541C10.9541 19.0137 10.6084 18.3779 10.3682 17.6338C10.1338 16.8896 10.0166 16.0576 10.0166 15.1377V14.0742C10.0166 13.1543 10.1367 12.3223 10.377 11.5781C10.623 10.834 10.9746 10.1982 11.4316 9.6709C11.8887 9.1377 12.4365 8.73047 13.0752 8.44922C13.7197 8.16797 14.4434 8.02734 15.2461 8.02734C16.2656 8.02734 17.127 8.21484 17.8301 8.58984C18.5332 8.96484 19.0781 9.4834 19.4648 10.1455C19.8574 10.8076 20.0977 11.5664 20.1855 12.4219H17.9883C17.9297 11.8711 17.8008 11.3994 17.6016 11.0068C17.4082 10.6143 17.1211 10.3154 16.7402 10.1104C16.3594 9.89941 15.8613 9.79395 15.2461 9.79395C14.7422 9.79395 14.3027 9.8877 13.9277 10.0752C13.5527 10.2627 13.2393 10.5381 12.9873 10.9014C12.7354 11.2646 12.5449 11.7129 12.416 12.2461C12.293 12.7734 12.2314 13.377 12.2314 14.0566V15.1377C12.2314 15.7822 12.2871 16.3682 12.3984 16.8955C12.5156 17.417 12.6914 17.8652 12.9258 18.2402C13.166 18.6152 13.4707 18.9053 13.8398 19.1104C14.209 19.3154 14.6514 19.418 15.167 19.418C15.7939 19.418 16.3008 19.3184 16.6875 19.1191C17.0801 18.9199 17.376 18.6299 17.5752 18.249C17.7803 17.8623 17.915 17.3906 17.9795 16.834Z" fill="#996BFF"/>
</svg>
