<svg width="28" height="28" viewBox="0 0 726 726" fill="none" xmlns="http://www.w3.org/2000/svg">
<g clip-path="url(#clip0_648_4924)">
<path d="M415.043 265.985C415.043 274.47 418.366 282.602 424.376 288.612L487.45 351.686C556.181 420.417 556.181 531.857 487.45 600.588C418.719 669.319 307.279 669.319 238.549 600.588C169.818 531.857 169.818 420.417 238.549 351.686L301.623 288.612C307.633 282.602 310.956 274.47 310.956 265.985L310.956 228.084C310.956 210.689 296.036 197.042 281.116 188.062C277.086 185.587 273.126 182.617 269.591 179.082C246.185 155.676 246.185 117.634 269.591 94.2288C292.996 70.8235 331.038 70.8235 354.443 94.2287C358.898 98.6835 366.959 98.6835 371.414 94.2287C394.819 70.8235 432.862 70.8235 456.267 94.2287C479.672 117.634 479.672 155.676 456.267 179.082C452.731 182.617 448.913 185.587 444.741 188.062C429.821 197.042 414.83 210.618 414.901 228.084L414.901 265.985L415.043 265.985Z" fill="#39379C"/>
</g>
<defs>
<clipPath id="clip0_648_4924">
<rect width="512" height="512" fill="white" transform="translate(725.038 363) rotate(135)"/>
</clipPath>
</defs>
</svg>
