<svg width="18" height="18" viewBox="0 0 512 512" fill="none" xmlns="http://www.w3.org/2000/svg">
<g clip-path="url(#clip0_648_4924)">
<path d="M150.6 287.8C156.6 281.8 160 273.7 160 265.2V176C160 78.8 238.8 0 336 0C433.2 0 512 78.8 512 176C512 273.2 433.2 352 336 352H246.8C238.3 352 230.2 355.4 224.2 361.4L197.4 388.2C185.1 400.5 186 420.7 190.2 437.6C191.3 442.2 192 447.1 192 452.1C192 485.2 165.1 512.1 132 512.1C98.9 512.1 72 485.2 72 452.1C72 445.8 66.3 440.1 60 440.1C26.9 440.1 0 413.2 0 380.1C0 347 26.9 320.1 60 320.1C65 320.1 69.8 320.7 74.5 321.9C91.4 326.1 111.6 327.1 123.9 314.7L150.7 287.9L150.6 287.8Z" fill="#5D5AE6"/>
</g>
<defs>
<clipPath id="clip0_648_4924">
<rect width="512" height="512" fill="white"/>
</clipPath>
</defs>
</svg>
