<svg width="30" height="30" viewBox="0 0 30 30" fill="none" xmlns="http://www.w3.org/2000/svg">
<rect x="2" y="2" width="26" height="26" rx="13" stroke="#4442B1" stroke-width="4"/>
<path d="M15.4131 16.2275H12.082V14.4785H15.4131C15.9932 14.4785 16.4619 14.3848 16.8193 14.1973C17.1768 14.0098 17.4375 13.752 17.6016 13.4238C17.7715 13.0898 17.8564 12.709 17.8564 12.2812C17.8564 11.877 17.7715 11.499 17.6016 11.1475C17.4375 10.79 17.1768 10.5029 16.8193 10.2861C16.4619 10.0693 15.9932 9.96094 15.4131 9.96094H12.7588V21H10.5527V8.20312H15.4131C16.4033 8.20312 17.2441 8.37891 17.9355 8.73047C18.6328 9.07617 19.1631 9.55664 19.5264 10.1719C19.8896 10.7812 20.0713 11.4785 20.0713 12.2637C20.0713 13.0898 19.8896 13.7988 19.5264 14.3906C19.1631 14.9824 18.6328 15.4365 17.9355 15.7529C17.2441 16.0693 16.4033 16.2275 15.4131 16.2275Z" fill="#4442B1"/>
</svg>
