<svg width="18" height="18" viewBox="0 0 25 25" fill="none" xmlns="http://www.w3.org/2000/svg">
<circle cx="12.5" cy="12.5" r="12" stroke="#35348A"/>
<path d="M13.1611 14.2275H9.83008V12.4785H13.1611C13.7412 12.4785 14.21 12.3848 14.5674 12.1973C14.9248 12.0098 15.1855 11.752 15.3496 11.4238C15.5195 11.0898 15.6045 10.709 15.6045 10.2812C15.6045 9.87695 15.5195 9.49902 15.3496 9.14746C15.1855 8.79004 14.9248 8.50293 14.5674 8.28613C14.21 8.06934 13.7412 7.96094 13.1611 7.96094H10.5068V19H8.30078V6.20312H13.1611C14.1514 6.20312 14.9922 6.37891 15.6836 6.73047C16.3809 7.07617 16.9111 7.55664 17.2744 8.17188C17.6377 8.78125 17.8193 9.47852 17.8193 10.2637C17.8193 11.0898 17.6377 11.7988 17.2744 12.3906C16.9111 12.9824 16.3809 13.4365 15.6836 13.7529C14.9922 14.0693 14.1514 14.2275 13.1611 14.2275Z" fill="#35348A"/>
</svg>
