<svg width="18" height="18" viewBox="0 0 512 512" fill="none" xmlns="http://www.w3.org/2000/svg">
<g clip-path="url(#clip0_648_4926)">
<path d="M472 0C423.4 0 384 39.4 384 88V112C384 120.8 391.2 128 400 128H424C472.6 128 512 88.6 512 40V16C512 7.2 504.8 0 496 0H472ZM305.5 27.3C299.3 21.1 289.1 21.1 282.9 27.3L271.5 38.6C234 76.1 234 136.9 271.5 174.4L281.9 184.8L251.4 215.3C248 188 235.9 161.5 214.9 140.5L203.6 129.2C197.4 123 187.2 123 181 129.2L169.7 140.5C132.2 178 132.2 238.8 169.7 276.3L180.1 286.7L149.6 317.2C146.2 289.9 134.1 263.4 113.1 242.4L101.8 231C95.5999 224.8 85.3999 224.8 79.1999 231L67.8999 242.3C30.3999 279.8 30.3999 340.6 67.8999 378.1L78.2999 388.5L9.3999 457.4C-3.1001 469.9 -3.1001 490.2 9.3999 502.7C21.8999 515.2 42.1999 515.2 54.6999 502.7L123.6 433.8L135.8 446C173.3 483.5 234.1 483.5 271.6 446L282.9 434.7C289.1 428.5 289.1 418.3 282.9 412.1L271.6 400.8C249.8 379 222 366.7 193.5 363.9L225.4 332L237.6 344.2C275.1 381.7 335.9 381.7 373.4 344.2L384.7 332.9C390.9 326.7 390.9 316.5 384.7 310.3L373.4 299C351.6 277.2 323.8 264.9 295.3 262.1L327.2 230.2L339.4 242.4C376.9 279.9 437.7 279.9 475.2 242.4L486.5 231C492.7 224.8 492.7 214.6 486.5 208.4L475.2 197C441.1 162.9 392.6 152.1 349.3 164.5C361.7 121.2 350.8 72.7 316.8 38.6L305.5 27.3Z" fill="#996BFF"/>
</g>
<defs>
<clipPath id="clip0_648_4926">
<rect width="512" height="512" fill="white"/>
</clipPath>
</defs>
</svg>
